<?xml version="1.0" standalone="no"?>
<!DOCTYPE svg PUBLIC "-//W3C//DTD SVG 20010904//EN"
 "http://www.w3.org/TR/2001/REC-SVG-20010904/DTD/svg10.dtd">
<svg version="1.0" xmlns="http://www.w3.org/2000/svg"
 width="1080.000000pt" height="1080.000000pt" viewBox="0 0 1080.000000 1080.000000"
 preserveAspectRatio="xMidYMid meet">

<g transform="translate(0.000000,1080.000000) scale(0.100000,-0.100000)"
fill="#000000" stroke="none">
<path d="M5286 9205 c-15 -8 -33 -15 -39 -15 -5 0 -73 -31 -151 -69 -78 -38
-157 -75 -176 -82 -19 -7 -95 -44 -168 -81 -73 -37 -139 -68 -145 -68 -7 0
-66 -27 -132 -60 -66 -33 -124 -60 -128 -60 -5 0 -90 -40 -190 -90 -99 -49
-186 -90 -192 -90 -5 0 -64 -27 -130 -60 -66 -33 -124 -60 -128 -60 -5 0 -90
-40 -190 -90 -99 -49 -185 -90 -189 -90 -5 0 -64 -27 -131 -60 -68 -33 -126
-60 -130 -60 -4 0 -76 -34 -160 -75 -146 -71 -219 -124 -209 -153 1 -5 -2 -13
-7 -17 -6 -3 -11 -21 -11 -40 0 -19 -5 -37 -10 -40 -6 -3 -10 -17 -10 -30 0
-13 -5 -27 -10 -30 -6 -3 -10 -17 -10 -30 0 -13 -5 -27 -10 -30 -6 -3 -10 -17
-10 -30 0 -13 -4 -27 -10 -30 -5 -3 -10 -21 -10 -40 0 -19 -4 -37 -10 -40 -5
-3 -10 -17 -10 -30 0 -13 -4 -27 -10 -30 -5 -3 -10 -21 -10 -40 0 -19 -4 -37
-10 -40 -5 -3 -10 -17 -10 -30 0 -13 -4 -27 -10 -30 -5 -3 -10 -21 -10 -40 0
-19 -4 -37 -10 -40 -5 -3 -10 -17 -10 -30 0 -13 -4 -27 -10 -30 -5 -3 -10 -21
-10 -40 0 -19 -4 -37 -10 -40 -5 -3 -10 -17 -10 -30 0 -13 -4 -27 -10 -30 -5
-3 -10 -21 -10 -40 0 -19 -4 -37 -10 -40 -5 -3 -10 -17 -10 -30 0 -13 -5 -25
-12 -27 -6 -2 -11 -19 -10 -36 0 -18 -4 -30 -9 -27 -5 4 -9 -12 -9 -34 0 -21
-5 -41 -11 -43 -6 -2 -11 -16 -12 -31 0 -15 -3 -30 -8 -33 -5 -3 -9 -20 -9
-39 0 -19 -4 -37 -10 -40 -5 -3 -10 -17 -10 -30 0 -13 -4 -27 -10 -30 -5 -3
-10 -21 -10 -40 0 -19 -4 -37 -10 -40 -5 -3 -10 -17 -10 -31 0 -13 -4 -24 -10
-24 -5 0 -10 -18 -10 -39 0 -22 -4 -43 -10 -46 -5 -3 -10 -17 -10 -31 0 -13
-4 -24 -10 -24 -5 0 -10 -18 -10 -39 0 -22 -4 -43 -10 -46 -5 -3 -10 -17 -10
-30 0 -13 -4 -27 -10 -30 -5 -3 -10 -21 -10 -40 0 -19 -4 -37 -10 -40 -5 -3
-10 -17 -10 -30 0 -13 -4 -27 -10 -30 -5 -3 -10 -21 -10 -40 0 -19 -4 -37 -10
-40 -5 -3 -10 -17 -10 -30 0 -13 -5 -25 -12 -27 -6 -2 -11 -19 -10 -36 0 -18
-4 -30 -9 -27 -5 4 -9 -12 -9 -34 0 -22 -5 -43 -10 -46 -6 -3 -10 -17 -10 -30
0 -13 -4 -27 -10 -30 -5 -3 -10 -22 -10 -41 0 -19 -4 -34 -10 -34 -5 0 -10
-13 -10 -29 0 -17 -4 -33 -10 -36 -5 -3 -10 -21 -10 -40 0 -19 -4 -37 -10 -40
-5 -3 -10 -20 -10 -36 0 -18 -4 -28 -10 -24 -6 4 -10 -10 -10 -34 0 -22 -4
-43 -10 -46 -5 -3 -10 -17 -10 -30 0 -13 -5 -27 -10 -30 -6 -3 -10 -21 -10
-40 0 -19 -4 -37 -10 -40 -5 -3 -10 -17 -10 -31 0 -13 -4 -24 -10 -24 -5 0
-10 -18 -10 -39 0 -22 -4 -43 -10 -46 -5 -3 -10 -17 -10 -30 0 -13 -5 -25 -12
-27 -6 -2 -11 -19 -10 -36 0 -18 -4 -30 -9 -27 -5 4 -9 -12 -9 -34 0 -21 -5
-41 -11 -43 -6 -2 -11 -16 -11 -31 0 -15 -4 -30 -9 -33 -5 -3 -9 -20 -9 -39 0
-19 -5 -37 -10 -40 -5 -3 -10 -17 -10 -30 0 -13 -5 -27 -10 -30 -6 -3 -10 -21
-10 -40 0 -19 -5 -37 -10 -40 -5 -3 -10 -17 -10 -31 0 -13 -4 -24 -10 -24 -5
0 -10 -18 -10 -39 0 -22 -5 -43 -10 -46 -5 -3 -10 -17 -10 -31 0 -13 -4 -24
-10 -24 -5 0 -10 -18 -10 -39 0 -22 -5 -43 -10 -46 -5 -3 -10 -17 -10 -30 0
-13 -5 -27 -10 -30 -6 -3 -10 -21 -10 -40 0 -19 -4 -37 -10 -40 -5 -3 -10 -17
-10 -30 0 -13 -5 -25 -12 -27 -6 -2 -11 -18 -10 -36 0 -18 -4 -32 -9 -32 -5 0
-9 -17 -9 -38 0 -39 -19 -92 -32 -92 -5 0 -8 -18 -8 -39 0 -22 -5 -43 -10 -46
-5 -3 -10 -20 -10 -36 0 -18 -4 -28 -10 -24 -20 13 -9 -42 12 -62 13 -11 76
-46 141 -78 65 -32 121 -64 124 -71 3 -8 10 -14 17 -14 21 0 238 -113 243
-126 3 -8 10 -14 17 -14 21 0 278 -133 283 -146 3 -8 10 -14 17 -14 21 0 238
-113 243 -126 3 -8 10 -14 17 -14 21 0 278 -133 283 -146 3 -8 10 -14 17 -14
21 0 238 -113 243 -126 3 -8 14 -14 24 -14 10 0 19 -4 19 -10 0 -5 6 -10 12
-10 22 0 240 -112 245 -126 3 -8 10 -14 17 -14 15 0 222 -104 244 -122 9 -8
79 -45 155 -82 75 -38 139 -72 142 -76 3 -5 61 -36 130 -70 69 -34 127 -65
130 -70 3 -5 70 -41 150 -80 80 -39 147 -75 150 -80 3 -5 62 -36 131 -70 69
-35 128 -69 131 -76 3 -8 10 -14 17 -14 21 0 238 -113 243 -126 3 -8 10 -14
17 -14 21 0 278 -133 283 -146 3 -8 14 -14 24 -14 10 0 19 -4 19 -9 0 -28 50
-14 177 50 75 38 142 69 147 69 6 0 65 27 131 60 66 33 123 60 128 60 4 0 90
40 190 89 100 48 198 94 217 102 19 7 86 39 149 71 63 32 119 58 124 58 4 0
81 35 170 79 89 43 178 84 197 92 19 7 86 39 149 71 63 32 118 58 123 58 5 0
73 32 152 70 78 39 146 70 151 70 4 0 81 35 169 79 89 43 180 86 203 96 72 30
77 39 133 235 12 41 34 118 50 170 16 52 36 124 45 160 9 36 27 99 40 140 13
41 33 109 45 150 12 41 34 118 50 170 16 52 43 147 60 210 55 199 78 280 159
546 17 55 31 108 31 117 0 9 15 63 34 119 19 57 44 141 56 188 12 47 30 110
40 140 19 55 34 108 71 250 11 41 33 118 49 170 27 90 41 138 91 313 11 39 31
106 44 147 13 41 33 113 45 160 12 47 30 110 40 140 10 30 26 82 35 115 9 33
25 89 35 125 36 123 62 215 80 280 10 36 30 103 44 149 14 46 23 93 20 105 -3
14 -29 32 -77 55 -40 19 -79 40 -87 47 -8 7 -68 39 -133 72 -65 34 -124 65
-130 70 -7 6 -83 47 -171 91 -87 44 -166 86 -175 94 -9 7 -65 37 -126 67 -60
30 -117 60 -125 67 -9 7 -67 39 -130 71 -63 32 -133 69 -155 83 -22 14 -80 45
-130 69 -49 24 -97 50 -106 57 -8 7 -77 44 -152 82 -76 38 -143 74 -151 80 -7
6 -64 37 -127 69 -63 32 -132 69 -154 83 -22 14 -102 56 -178 93 -75 38 -139
72 -142 76 -3 5 -49 30 -103 56 -53 26 -104 53 -112 60 -8 7 -86 49 -174 93
-87 44 -166 86 -175 94 -9 7 -56 33 -106 57 -49 24 -97 49 -105 56 -8 7 -76
43 -150 81 -74 38 -153 80 -175 94 -22 14 -84 47 -137 73 -54 26 -100 52 -103
56 -8 12 -169 90 -186 90 -8 0 -27 -7 -43 -15z m366 -833 c48 -24 94 -52 101
-63 8 -10 17 -16 21 -11 4 4 13 0 19 -8 7 -8 17 -15 22 -15 23 0 186 -88 195
-105 6 -11 17 -17 25 -14 8 4 18 -1 21 -10 3 -9 9 -14 14 -11 11 7 223 -102
241 -124 9 -11 20 -17 24 -13 3 4 12 0 18 -8 7 -8 17 -15 22 -15 22 0 185 -87
198 -106 8 -10 17 -16 21 -11 4 4 13 0 19 -8 7 -8 17 -15 22 -15 22 0 226
-108 238 -126 8 -10 17 -16 21 -11 4 4 13 0 19 -8 7 -8 17 -15 22 -15 22 0
185 -87 198 -106 8 -10 17 -16 21 -11 4 4 13 0 19 -8 7 -8 17 -15 22 -15 22 0
226 -108 238 -126 8 -10 17 -16 21 -11 4 4 13 0 19 -8 7 -8 17 -15 22 -15 22
0 185 -87 198 -106 8 -10 17 -16 21 -11 4 4 13 0 19 -8 7 -8 17 -15 22 -15 22
0 227 -108 237 -125 7 -10 17 -16 25 -13 7 3 16 -2 19 -11 3 -9 9 -14 14 -11
9 6 145 -62 145 -72 0 -5 4 -14 9 -22 6 -10 5 -16 -2 -19 -7 -2 -12 -10 -12
-18 0 -8 -6 -15 -12 -16 -7 0 -17 -2 -23 -2 -5 -1 -25 -9 -44 -19 -19 -9 -40
-17 -47 -17 -7 0 -14 -3 -16 -7 -4 -11 -87 -53 -102 -53 -7 0 -84 -36 -171
-80 -87 -44 -164 -80 -170 -80 -6 0 -74 -31 -150 -70 -76 -38 -144 -70 -150
-70 -6 0 -83 -36 -170 -80 -87 -44 -164 -80 -171 -80 -6 0 -46 -18 -89 -40
-43 -22 -84 -40 -91 -40 -7 0 -14 -3 -16 -7 -4 -11 -87 -53 -104 -53 -7 0 -29
-9 -49 -20 -45 -25 -97 -26 -118 -2 -9 10 -32 24 -52 32 -19 8 -35 17 -35 22
0 4 -6 8 -14 8 -16 0 -95 39 -113 56 -6 6 -74 42 -150 80 -76 38 -144 74 -150
80 -7 7 -39 25 -70 40 -32 16 -59 32 -61 36 -2 4 -10 8 -17 8 -15 0 -94 40
-112 56 -7 7 -47 29 -90 50 -43 21 -79 42 -81 46 -2 4 -10 8 -17 8 -15 0 -95
40 -112 57 -7 6 -39 24 -70 39 -32 16 -59 32 -61 36 -2 4 -10 8 -17 8 -16 0
-95 40 -113 58 -8 6 -22 17 -32 22 -18 10 -21 35 -8 70 3 8 11 38 18 65 6 28
16 59 20 70 4 11 13 43 20 70 7 28 16 59 20 70 4 11 13 43 20 70 7 28 16 59
20 70 4 11 13 43 20 70 7 28 15 59 20 70 7 18 18 55 70 238 41 142 62 214 80
277 11 36 20 73 20 82 0 9 4 19 8 22 5 3 14 35 22 71 8 36 17 68 22 71 4 3 8
16 8 29 0 21 36 59 50 53 3 -2 44 -22 92 -46z m-814 -141 c2 -22 0 -31 -7 -26
-7 4 -11 -8 -11 -33 0 -23 -6 -45 -15 -52 -9 -7 -13 -21 -10 -31 4 -11 2 -19
-4 -19 -6 0 -11 -18 -11 -39 0 -22 -4 -43 -10 -46 -5 -3 -10 -17 -10 -31 0
-13 -4 -24 -10 -24 -5 0 -10 -18 -10 -39 0 -22 -4 -43 -10 -46 -5 -3 -10 -17
-10 -31 0 -13 -4 -24 -10 -24 -5 0 -10 -17 -10 -39 0 -21 -6 -44 -14 -50 -8
-7 -12 -21 -9 -31 3 -11 0 -20 -6 -20 -6 0 -11 -17 -11 -39 0 -22 -4 -43 -10
-46 -5 -3 -10 -17 -10 -31 0 -13 -4 -24 -10 -24 -5 0 -10 -18 -10 -39 0 -22
-4 -43 -10 -46 -5 -3 -10 -17 -10 -31 0 -13 -4 -24 -10 -24 -5 0 -10 -18 -10
-40 0 -29 -5 -42 -19 -50 -36 -19 -79 -9 -118 27 -7 6 -39 24 -70 39 -32 16
-59 32 -61 36 -2 4 -10 8 -17 8 -15 0 -95 40 -112 57 -7 6 -39 24 -70 39 -32
16 -59 32 -61 36 -2 4 -12 8 -23 8 -10 0 -19 5 -19 10 0 6 -6 10 -14 10 -17 0
-95 40 -115 58 -7 7 -31 21 -52 30 -22 9 -39 20 -39 24 0 5 -9 8 -20 8 -11 0
-20 5 -20 10 0 6 -7 10 -15 10 -23 0 -55 37 -48 55 3 9 11 14 18 11 7 -2 22 4
33 15 12 10 28 19 36 19 7 0 40 14 71 30 31 17 63 30 69 30 7 0 66 27 131 60
65 33 124 60 132 60 7 0 13 5 13 10 0 6 8 10 18 10 10 0 72 27 137 60 65 33
124 60 132 60 7 0 13 3 13 8 0 8 48 32 66 32 6 0 46 18 89 40 43 22 84 40 91
40 8 0 14 3 14 8 0 11 42 29 64 27 14 -1 21 -11 24 -34z m-1607 -958 c25 -12
52 -29 59 -38 7 -8 18 -15 26 -15 7 0 17 -6 21 -12 4 -7 13 -13 18 -13 23 0
186 -88 195 -105 6 -11 17 -17 25 -14 8 4 17 -1 21 -9 3 -9 12 -13 20 -10 7 3
17 -2 20 -11 3 -9 9 -14 14 -11 11 7 183 -82 201 -104 9 -11 20 -17 24 -13 3
4 12 0 18 -8 7 -8 17 -15 22 -15 23 0 186 -88 196 -106 5 -11 15 -16 21 -13 6
4 16 1 22 -7 6 -8 16 -14 21 -14 6 0 49 -19 98 -43 l87 -43 0 -68 c0 -47 -5
-72 -14 -80 -8 -7 -12 -21 -9 -31 3 -11 0 -20 -6 -20 -6 0 -11 -17 -11 -39 0
-22 -4 -43 -10 -46 -5 -3 -10 -17 -10 -31 0 -13 -4 -24 -10 -24 -5 0 -10 -18
-10 -39 0 -22 -4 -43 -10 -46 -5 -3 -10 -15 -10 -26 0 -11 -7 -27 -15 -36 -9
-9 -13 -23 -10 -34 4 -11 2 -19 -4 -19 -6 0 -11 -17 -11 -39 0 -21 -6 -44 -14
-50 -8 -7 -12 -21 -9 -31 3 -11 0 -20 -6 -20 -6 0 -11 -17 -11 -39 0 -22 -4
-43 -10 -46 -5 -3 -10 -17 -10 -31 0 -13 -4 -24 -10 -24 -5 0 -10 -17 -10 -39
0 -21 -6 -44 -14 -50 -8 -7 -12 -21 -9 -31 3 -11 0 -20 -6 -20 -6 0 -11 -17
-11 -39 0 -21 -6 -44 -14 -50 -8 -7 -12 -21 -9 -31 3 -11 0 -20 -6 -20 -6 0
-11 -17 -11 -39 0 -22 -4 -43 -10 -46 -5 -3 -10 -17 -10 -31 0 -13 -4 -24 -10
-24 -5 0 -10 -18 -10 -39 0 -22 -4 -43 -10 -46 -5 -3 -10 -17 -10 -30 0 -13
-5 -25 -12 -27 -7 -3 -12 -18 -13 -34 0 -21 -5 -28 -17 -26 -9 1 -19 -2 -23
-8 -3 -5 -14 -10 -24 -10 -10 0 -62 -22 -116 -50 -54 -27 -104 -50 -111 -50
-7 0 -14 -3 -16 -7 -4 -11 -87 -53 -102 -53 -7 0 -57 -22 -111 -50 -54 -27
-104 -50 -112 -50 -7 0 -13 -3 -13 -7 0 -9 -48 -33 -65 -33 -7 0 -56 -22 -110
-50 -54 -27 -104 -50 -111 -50 -7 0 -14 -3 -16 -7 -4 -11 -87 -53 -102 -53 -7
0 -57 -22 -111 -50 -54 -27 -104 -50 -112 -50 -7 0 -13 -3 -13 -7 0 -9 -48
-33 -65 -33 -7 0 -56 -23 -110 -50 -54 -27 -104 -50 -112 -50 -7 0 -13 -4 -13
-10 0 -5 -13 -10 -29 -10 -29 0 -33 12 -19 50 3 8 11 38 18 65 6 28 16 59 20
70 4 11 13 43 20 70 7 28 16 59 20 70 4 11 13 43 20 70 7 28 16 59 20 70 4 11
13 43 20 70 7 28 15 59 20 70 18 47 30 93 30 113 0 11 5 24 10 27 6 3 10 16
10 29 0 12 4 26 8 32 5 5 15 36 22 69 7 33 16 65 20 70 4 6 13 37 20 70 7 33
16 65 20 70 4 6 13 37 20 70 7 33 16 65 20 70 4 6 13 37 20 70 7 33 16 65 20
70 3 6 12 35 19 65 7 30 16 64 21 75 4 11 18 54 29 95 12 41 31 104 41 140 11
36 20 72 20 81 0 8 4 19 8 24 5 6 15 37 22 70 7 33 16 65 20 70 4 6 13 37 20
70 7 33 16 65 20 70 4 6 13 37 20 70 7 33 16 65 20 70 4 6 13 37 20 70 7 33
16 65 20 70 4 6 12 37 19 70 7 33 17 65 21 70 4 6 10 21 13 35 11 50 39 146
53 185 18 48 35 51 105 18z m1763 -955 c4 4 13 0 19 -8 7 -8 17 -15 22 -15 23
0 186 -88 195 -105 6 -11 17 -17 25 -14 8 4 18 -1 21 -10 3 -9 9 -14 14 -11
11 7 223 -102 241 -124 9 -11 20 -17 24 -13 3 4 12 0 18 -8 7 -8 17 -15 22
-15 23 0 186 -88 196 -106 5 -11 15 -16 21 -13 6 4 16 1 22 -7 6 -8 16 -14 21
-14 23 0 186 -88 195 -105 6 -11 17 -17 25 -14 8 4 17 -1 21 -9 3 -9 12 -13
20 -10 7 3 16 -2 20 -10 3 -9 12 -13 19 -11 16 6 30 -17 40 -65 5 -23 4 -31
-4 -27 -7 5 -11 -6 -11 -33 0 -22 -4 -43 -10 -46 -5 -3 -10 -17 -10 -31 0 -13
-4 -24 -10 -24 -5 0 -10 -18 -10 -39 0 -22 -4 -43 -10 -46 -5 -3 -10 -17 -10
-31 0 -13 -4 -24 -10 -24 -5 0 -10 -17 -10 -39 0 -21 -6 -44 -14 -50 -8 -7
-12 -21 -9 -31 3 -11 0 -20 -6 -20 -6 0 -11 -17 -11 -39 0 -21 -6 -44 -14 -50
-8 -7 -12 -21 -9 -31 3 -11 0 -20 -6 -20 -6 0 -11 -17 -11 -39 0 -22 -4 -43
-10 -46 -5 -3 -10 -17 -10 -31 0 -13 -4 -24 -10 -24 -5 0 -10 -18 -10 -39 0
-22 -4 -43 -10 -46 -5 -3 -10 -15 -10 -26 0 -11 -7 -27 -15 -36 -9 -9 -13 -23
-10 -34 4 -11 2 -19 -4 -19 -6 0 -11 -17 -11 -39 0 -22 -6 -44 -15 -51 -9 -7
-13 -21 -10 -31 4 -11 2 -19 -4 -19 -5 0 -11 -19 -13 -42 -3 -39 -5 -43 -28
-40 -27 2 -226 98 -247 119 -7 6 -39 24 -70 39 -32 16 -59 32 -61 36 -2 4 -10
8 -17 8 -15 0 -94 40 -112 56 -7 7 -47 29 -90 50 -43 21 -79 42 -81 46 -2 4
-10 8 -17 8 -15 0 -94 40 -112 56 -7 6 -65 38 -130 70 -65 32 -123 64 -130 70
-7 7 -47 29 -90 50 -43 21 -84 44 -90 50 -15 14 -17 55 -5 69 5 6 15 37 22 70
7 33 16 65 20 70 4 6 13 37 20 70 7 33 16 65 20 70 4 6 13 37 20 70 7 33 16
65 20 70 4 6 13 37 20 70 7 33 17 64 22 69 4 6 8 19 8 31 0 12 4 25 8 31 5 5
15 36 22 69 7 33 16 65 20 70 4 6 13 37 20 70 7 33 16 65 20 70 4 6 13 37 20
70 7 33 17 65 21 70 4 6 9 21 11 35 4 32 48 56 64 35 6 -8 14 -11 18 -7z
m3448 -45 c-2 -32 -11 -65 -18 -74 -8 -9 -12 -24 -8 -33 3 -9 1 -16 -5 -16 -6
0 -11 -17 -11 -39 0 -22 -4 -43 -10 -46 -5 -3 -10 -17 -10 -31 0 -13 -4 -24
-10 -24 -5 0 -10 -18 -10 -39 0 -22 -4 -43 -10 -46 -5 -3 -10 -17 -10 -31 0
-13 -4 -24 -10 -24 -5 0 -10 -17 -10 -39 0 -21 -6 -44 -14 -50 -8 -7 -12 -21
-9 -31 3 -11 0 -20 -6 -20 -6 0 -11 -17 -11 -39 0 -22 -4 -43 -10 -46 -5 -3
-10 -17 -10 -31 0 -13 -4 -24 -10 -24 -5 0 -10 -18 -10 -39 0 -22 -4 -43 -10
-46 -5 -3 -10 -17 -10 -31 0 -13 -4 -24 -10 -24 -5 0 -10 -18 -10 -39 0 -22
-4 -43 -10 -46 -5 -3 -10 -15 -10 -26 0 -11 -7 -27 -15 -36 -9 -9 -13 -23 -10
-34 4 -11 2 -19 -4 -19 -6 0 -11 -17 -11 -39 0 -21 -6 -44 -14 -50 -8 -7 -12
-21 -9 -31 3 -11 0 -20 -6 -20 -6 0 -11 -17 -11 -39 0 -21 -6 -44 -14 -50 -8
-7 -12 -21 -9 -31 3 -11 0 -20 -6 -20 -6 0 -11 -17 -11 -39 0 -22 -4 -43 -10
-46 -5 -3 -10 -17 -10 -31 0 -13 -4 -24 -10 -24 -5 0 -10 -17 -10 -39 0 -21
-6 -44 -14 -50 -8 -7 -12 -21 -9 -31 3 -11 0 -20 -6 -20 -6 0 -11 -17 -11 -39
0 -21 -6 -44 -14 -50 -8 -7 -12 -21 -9 -31 3 -11 0 -20 -6 -20 -6 0 -11 -17
-11 -39 0 -22 -4 -43 -10 -46 -5 -3 -10 -17 -10 -31 0 -13 -4 -24 -10 -24 -5
0 -10 -16 -10 -36 0 -21 -4 -33 -10 -29 -6 4 -10 -9 -10 -33 0 -23 -6 -45 -15
-52 -9 -7 -13 -21 -10 -31 4 -11 2 -19 -4 -19 -6 0 -11 -18 -11 -39 0 -22 -4
-43 -10 -46 -5 -3 -10 -17 -10 -31 0 -13 -4 -24 -10 -24 -5 0 -10 -18 -10 -39
0 -22 -4 -43 -10 -46 -5 -3 -10 -17 -10 -31 0 -13 -4 -24 -10 -24 -5 0 -10
-17 -10 -39 0 -21 -6 -44 -14 -50 -8 -7 -12 -21 -9 -31 3 -11 0 -20 -6 -20 -6
0 -11 -17 -11 -39 0 -21 -6 -44 -14 -50 -8 -7 -12 -21 -9 -31 3 -11 0 -20 -6
-20 -6 0 -11 -14 -11 -32 0 -17 -5 -47 -12 -65 -11 -31 -15 -33 -42 -27 -32 7
-62 22 -83 40 -7 7 -47 29 -90 50 -43 21 -79 42 -81 46 -2 4 -10 8 -18 8 -16
0 -51 18 -71 37 -7 6 -39 24 -70 39 -32 16 -59 32 -61 36 -2 4 -12 8 -23 8
-10 0 -19 5 -19 10 0 6 -9 10 -20 10 -11 0 -20 5 -20 10 0 6 -7 10 -15 10 -17
0 -52 18 -73 38 -8 7 -32 21 -53 30 -22 9 -39 20 -39 24 0 5 -6 8 -13 8 -18 0
-67 24 -67 33 0 4 -7 7 -15 7 -16 0 -51 18 -72 37 -7 6 -39 24 -70 39 -32 16
-59 32 -61 36 -2 4 -12 8 -23 8 -10 0 -19 5 -19 10 0 6 -9 10 -20 10 -11 0
-20 4 -20 8 0 5 -12 15 -27 23 -58 29 -66 43 -55 91 12 46 45 164 54 188 4 8
11 38 18 65 6 28 16 59 20 70 4 11 14 43 20 70 7 28 18 64 25 80 7 17 16 50
20 75 4 24 11 51 15 60 5 8 17 47 28 85 11 39 29 102 41 140 11 39 21 77 21
86 0 8 4 19 8 24 5 6 15 37 22 70 7 33 16 65 20 70 3 6 12 35 19 65 7 30 16
64 21 75 4 11 13 39 20 62 7 24 20 49 29 57 24 21 90 56 105 56 8 0 16 3 18 8
4 9 127 72 142 72 7 0 84 36 171 80 87 44 164 80 170 80 6 0 74 32 150 70 76
39 144 70 150 70 6 0 74 32 150 70 76 39 143 70 149 70 6 0 81 35 166 78 129
64 188 89 241 101 3 0 4 -25 1 -56z m-4164 -1647 c4 -6 12 -11 17 -11 23 0
186 -88 195 -105 6 -11 17 -17 25 -14 8 4 17 -1 21 -9 3 -9 12 -13 20 -10 7 3
17 -2 20 -11 3 -9 9 -14 14 -11 11 7 183 -82 201 -104 9 -11 20 -17 24 -13 3
4 12 0 18 -8 7 -8 17 -15 22 -15 23 0 186 -88 195 -105 6 -11 17 -17 25 -14 8
4 17 -1 21 -9 3 -9 12 -13 20 -10 7 3 17 -2 20 -11 3 -9 9 -14 14 -11 11 7
183 -82 201 -104 9 -11 20 -17 24 -13 3 4 12 0 18 -8 7 -8 17 -15 22 -15 23 0
186 -88 196 -106 5 -11 15 -17 20 -13 6 3 18 -2 27 -12 18 -21 27 -74 11 -74
-5 0 -9 -16 -9 -36 0 -19 -7 -42 -15 -51 -9 -9 -13 -23 -10 -34 4 -11 2 -19
-4 -19 -6 0 -11 -18 -11 -39 0 -22 -4 -43 -10 -46 -5 -3 -10 -17 -10 -31 0
-13 -4 -24 -10 -24 -5 0 -10 -18 -10 -39 0 -22 -4 -43 -10 -46 -5 -3 -10 -17
-10 -31 0 -13 -4 -24 -10 -24 -5 0 -10 -17 -10 -39 0 -21 -6 -44 -14 -50 -8
-7 -12 -21 -9 -31 3 -11 0 -20 -6 -20 -6 0 -11 -17 -11 -39 0 -21 -6 -44 -14
-50 -8 -7 -12 -21 -9 -31 3 -11 0 -20 -6 -20 -6 0 -11 -17 -11 -39 0 -22 -4
-43 -10 -46 -5 -3 -10 -17 -10 -30 0 -13 -5 -25 -11 -27 -6 -2 -11 -16 -11
-31 0 -15 -4 -27 -9 -27 -5 0 -9 -16 -9 -36 0 -19 -7 -42 -15 -51 -9 -9 -13
-23 -10 -34 4 -11 2 -19 -4 -19 -6 0 -11 -17 -11 -39 0 -21 -6 -44 -14 -50 -8
-7 -12 -21 -9 -31 3 -11 0 -20 -6 -20 -6 0 -11 -17 -11 -39 0 -22 -4 -43 -10
-46 -5 -3 -10 -17 -10 -31 0 -13 -4 -24 -10 -24 -5 0 -10 -18 -10 -39 0 -42
-12 -57 -32 -44 -7 4 -17 8 -23 8 -14 0 -88 37 -102 51 -7 7 -47 29 -90 50
-43 21 -79 42 -81 46 -2 4 -10 8 -17 8 -16 0 -95 40 -114 58 -7 7 -31 21 -52
30 -22 9 -39 20 -39 24 0 5 -9 8 -20 8 -11 0 -20 5 -20 10 0 6 -6 10 -14 10
-16 0 -95 39 -113 57 -7 6 -39 24 -70 39 -32 16 -59 32 -61 36 -2 4 -12 8 -23
8 -10 0 -19 5 -19 10 0 6 -6 10 -14 10 -17 0 -95 40 -115 58 -7 7 -31 21 -52
30 -22 9 -39 20 -39 24 0 5 -9 8 -20 8 -11 0 -20 5 -20 10 0 6 -6 10 -14 10
-16 0 -95 39 -113 56 -7 7 -47 29 -90 50 -43 21 -79 42 -81 46 -2 4 -10 8 -18
8 -15 0 -51 18 -70 36 -7 6 -75 42 -151 80 -76 38 -143 74 -150 80 -7 6 -65
38 -130 70 -65 32 -123 64 -130 70 -7 7 -47 29 -90 50 -43 21 -79 42 -81 46
-2 4 -10 8 -17 8 -15 0 -94 40 -112 56 -7 6 -65 38 -130 70 -65 32 -120 61
-123 64 -3 3 -19 16 -37 28 -31 22 -31 24 -15 40 21 21 99 62 117 62 7 0 47
18 90 40 43 22 84 40 91 40 7 0 14 3 16 8 4 10 128 72 143 72 7 0 39 14 70 30
31 17 63 30 71 30 8 0 14 5 14 10 0 6 9 10 20 10 11 0 20 3 20 8 0 8 48 32 66
32 6 0 46 18 89 40 43 22 84 40 91 40 8 0 14 5 14 10 0 6 9 10 20 10 11 0 20
5 20 10 0 6 9 10 20 10 11 0 20 3 20 8 0 8 48 32 65 32 7 0 56 23 110 50 54
28 104 50 112 50 7 0 13 3 13 8 0 8 48 32 66 32 6 0 46 18 89 40 43 22 84 40
91 40 8 0 14 4 14 9 0 5 10 12 23 16 12 5 31 11 42 15 30 11 75 8 83 -4z
m2114 -1124 c59 -30 110 -57 113 -62 3 -5 61 -36 130 -70 69 -34 127 -65 130
-70 3 -5 61 -36 129 -70 68 -33 130 -67 136 -75 7 -8 18 -15 24 -15 6 0 20
-10 30 -21 23 -28 8 -69 -25 -69 -12 0 -95 -35 -183 -79 -89 -43 -177 -85
-196 -92 -19 -7 -86 -39 -149 -71 -63 -32 -119 -58 -124 -58 -6 0 -73 -31
-151 -69 -78 -38 -157 -74 -176 -81 -19 -8 -39 -17 -45 -21 -5 -4 -26 -10 -46
-14 l-37 -7 9 46 c5 26 15 70 23 99 8 28 22 79 31 112 9 33 25 85 35 115 10
30 28 93 40 140 24 95 31 118 91 310 57 183 53 176 80 175 13 0 72 -24 131
-53z"/>
</g>
</svg>
